<?xml version="1.0" encoding="UTF-8" standalone="no"?>
<!-- Created with Inkscape (http://www.inkscape.org/) -->

<svg
   version="1.1"
   id="svg1"
   width="666.66669"
   height="666.66669"
   viewBox="0 0 666.66669 666.66669"
   sodipodi:docname="3686779.svg"
   inkscape:version="1.3 (0e150ed6c4, 2023-07-21)"
   xmlns:inkscape="http://www.inkscape.org/namespaces/inkscape"
   xmlns:sodipodi="http://sodipodi.sourceforge.net/DTD/sodipodi-0.dtd"
   xmlns="http://www.w3.org/2000/svg"
   xmlns:svg="http://www.w3.org/2000/svg">
  <defs
     id="defs1">
    <clipPath
       clipPathUnits="userSpaceOnUse"
       id="clipPath69">
      <path
         d="M 0,500 H 500 V 0 H 0 Z"
         transform="translate(-152.1466,-279.43281)"
         id="path69" />
    </clipPath>
    <clipPath
       clipPathUnits="userSpaceOnUse"
       id="clipPath71">
      <path
         d="M 0,500 H 500 V 0 H 0 Z"
         id="path71" />
    </clipPath>
    <clipPath
       clipPathUnits="userSpaceOnUse"
       id="clipPath73">
      <path
         d="M 0,500 H 500 V 0 H 0 Z"
         id="path73" />
    </clipPath>
    <clipPath
       clipPathUnits="userSpaceOnUse"
       id="clipPath75">
      <path
         d="M 0,500 H 500 V 0 H 0 Z"
         id="path75" />
    </clipPath>
    <clipPath
       clipPathUnits="userSpaceOnUse"
       id="clipPath77">
      <path
         d="M 0,500 H 500 V 0 H 0 Z"
         transform="translate(-171.0529,-352.83271)"
         id="path77" />
    </clipPath>
    <clipPath
       clipPathUnits="userSpaceOnUse"
       id="clipPath79">
      <path
         d="M 0,500 H 500 V 0 H 0 Z"
         id="path79" />
    </clipPath>
    <clipPath
       clipPathUnits="userSpaceOnUse"
       id="clipPath81">
      <path
         d="M 0,500 H 500 V 0 H 0 Z"
         id="path81" />
    </clipPath>
    <clipPath
       clipPathUnits="userSpaceOnUse"
       id="clipPath83">
      <path
         d="M 0,500 H 500 V 0 H 0 Z"
         id="path83" />
    </clipPath>
    <clipPath
       clipPathUnits="userSpaceOnUse"
       id="clipPath85">
      <path
         d="M 0,500 H 500 V 0 H 0 Z"
         transform="translate(-277.88641,-329.60521)"
         id="path85" />
    </clipPath>
    <clipPath
       clipPathUnits="userSpaceOnUse"
       id="clipPath87">
      <path
         d="M 0,500 H 500 V 0 H 0 Z"
         id="path87" />
    </clipPath>
    <clipPath
       clipPathUnits="userSpaceOnUse"
       id="clipPath89">
      <path
         d="M 0,500 H 500 V 0 H 0 Z"
         id="path89" />
    </clipPath>
    <clipPath
       clipPathUnits="userSpaceOnUse"
       id="clipPath91">
      <path
         d="M 0,500 H 500 V 0 H 0 Z"
         id="path91" />
    </clipPath>
    <clipPath
       clipPathUnits="userSpaceOnUse"
       id="clipPath93">
      <path
         d="M 0,500 H 500 V 0 H 0 Z"
         id="path93" />
    </clipPath>
    <clipPath
       clipPathUnits="userSpaceOnUse"
       id="clipPath95">
      <path
         d="M 0,500 H 500 V 0 H 0 Z"
         id="path95" />
    </clipPath>
    <clipPath
       clipPathUnits="userSpaceOnUse"
       id="clipPath97">
      <path
         d="M 0,500 H 500 V 0 H 0 Z"
         id="path97" />
    </clipPath>
    <clipPath
       clipPathUnits="userSpaceOnUse"
       id="clipPath99">
      <path
         d="M 0,500 H 500 V 0 H 0 Z"
         transform="translate(-259.92351,-259.92161)"
         id="path99" />
    </clipPath>
    <clipPath
       clipPathUnits="userSpaceOnUse"
       id="clipPath101">
      <path
         d="M 0,500 H 500 V 0 H 0 Z"
         id="path101" />
    </clipPath>
    <clipPath
       clipPathUnits="userSpaceOnUse"
       id="clipPath103">
      <path
         d="M 0,500 H 500 V 0 H 0 Z"
         id="path103" />
    </clipPath>
    <clipPath
       clipPathUnits="userSpaceOnUse"
       id="clipPath105">
      <path
         d="M 0,500 H 500 V 0 H 0 Z"
         id="path105" />
    </clipPath>
    <clipPath
       clipPathUnits="userSpaceOnUse"
       id="clipPath107">
      <path
         d="M 0,500 H 500 V 0 H 0 Z"
         id="path107" />
    </clipPath>
    <clipPath
       clipPathUnits="userSpaceOnUse"
       id="clipPath109">
      <path
         d="M 0,500 H 500 V 0 H 0 Z"
         id="path109" />
    </clipPath>
    <clipPath
       clipPathUnits="userSpaceOnUse"
       id="clipPath111">
      <path
         d="M 0,500 H 500 V 0 H 0 Z"
         id="path111" />
    </clipPath>
    <clipPath
       clipPathUnits="userSpaceOnUse"
       id="clipPath113">
      <path
         d="M 0,500 H 500 V 0 H 0 Z"
         id="path113" />
    </clipPath>
    <clipPath
       clipPathUnits="userSpaceOnUse"
       id="clipPath115">
      <path
         d="M 0,500 H 500 V 0 H 0 Z"
         id="path115" />
    </clipPath>
    <clipPath
       clipPathUnits="userSpaceOnUse"
       id="clipPath119">
      <path
         d="M 0,500 H 500 V 0 H 0 Z"
         id="path119" />
    </clipPath>
    <clipPath
       clipPathUnits="userSpaceOnUse"
       id="clipPath123">
      <path
         d="M 0,500 H 500 V 0 H 0 Z"
         id="path123" />
    </clipPath>
    <clipPath
       clipPathUnits="userSpaceOnUse"
       id="clipPath125">
      <path
         d="M 0,500 H 500 V 0 H 0 Z"
         id="path125" />
    </clipPath>
    <clipPath
       clipPathUnits="userSpaceOnUse"
       id="clipPath129">
      <path
         d="M 0,500 H 500 V 0 H 0 Z"
         id="path129" />
    </clipPath>
    <clipPath
       clipPathUnits="userSpaceOnUse"
       id="clipPath135">
      <path
         d="M 0,500 H 500 V 0 H 0 Z"
         id="path135" />
    </clipPath>
    <clipPath
       clipPathUnits="userSpaceOnUse"
       id="clipPath137">
      <path
         d="M 0,500 H 500 V 0 H 0 Z"
         id="path137" />
    </clipPath>
    <clipPath
       clipPathUnits="userSpaceOnUse"
       id="clipPath139">
      <path
         d="M 0,500 H 500 V 0 H 0 Z"
         id="path139" />
    </clipPath>
    <clipPath
       clipPathUnits="userSpaceOnUse"
       id="clipPath141">
      <path
         d="M 0,500 H 500 V 0 H 0 Z"
         id="path141" />
    </clipPath>
    <clipPath
       clipPathUnits="userSpaceOnUse"
       id="clipPath143">
      <path
         d="M 0,500 H 500 V 0 H 0 Z"
         id="path143" />
    </clipPath>
    <clipPath
       clipPathUnits="userSpaceOnUse"
       id="clipPath145">
      <path
         d="M 0,500 H 500 V 0 H 0 Z"
         id="path145" />
    </clipPath>
    <clipPath
       clipPathUnits="userSpaceOnUse"
       id="clipPath147">
      <path
         d="M 0,500 H 500 V 0 H 0 Z"
         id="path147" />
    </clipPath>
    <clipPath
       clipPathUnits="userSpaceOnUse"
       id="clipPath149">
      <path
         d="M 0,500 H 500 V 0 H 0 Z"
         id="path149" />
    </clipPath>
    <clipPath
       clipPathUnits="userSpaceOnUse"
       id="clipPath151">
      <path
         d="M 0,500 H 500 V 0 H 0 Z"
         transform="translate(-249.4264,-335.12471)"
         id="path151" />
    </clipPath>
    <clipPath
       clipPathUnits="userSpaceOnUse"
       id="clipPath159">
      <path
         d="M 0,500 H 500 V 0 H 0 Z"
         transform="translate(-256.63341,-364.90501)"
         id="path159" />
    </clipPath>
    <clipPath
       clipPathUnits="userSpaceOnUse"
       id="clipPath269">
      <path
         d="M 0,500 H 500 V 0 H 0 Z"
         transform="translate(-245.44891,-346.92301)"
         id="path269" />
    </clipPath>
    <clipPath
       clipPathUnits="userSpaceOnUse"
       id="clipPath271">
      <path
         d="M 0,500 H 500 V 0 H 0 Z"
         transform="translate(-145.9357,-323.37321)"
         id="path271" />
    </clipPath>
    <clipPath
       clipPathUnits="userSpaceOnUse"
       id="clipPath273">
      <path
         d="M 0,500 H 500 V 0 H 0 Z"
         transform="translate(-142.5631,-316.80541)"
         id="path273" />
    </clipPath>
    <clipPath
       clipPathUnits="userSpaceOnUse"
       id="clipPath275">
      <path
         d="M 0,500 H 500 V 0 H 0 Z"
         transform="translate(-157.1686,-303.08711)"
         id="path275" />
    </clipPath>
    <clipPath
       clipPathUnits="userSpaceOnUse"
       id="clipPath277">
      <path
         d="M 0,500 H 500 V 0 H 0 Z"
         transform="translate(-198.09681,-338.33811)"
         id="path277" />
    </clipPath>
    <clipPath
       clipPathUnits="userSpaceOnUse"
       id="clipPath279">
      <path
         d="M 0,500 H 500 V 0 H 0 Z"
         transform="translate(-198.09681,-331.35571)"
         id="path279" />
    </clipPath>
    <clipPath
       clipPathUnits="userSpaceOnUse"
       id="clipPath281">
      <path
         d="M 0,500 H 500 V 0 H 0 Z"
         transform="translate(-222.98991,-319.87621)"
         id="path281" />
    </clipPath>
    <clipPath
       clipPathUnits="userSpaceOnUse"
       id="clipPath283">
      <path
         d="M 0,500 H 500 V 0 H 0 Z"
         transform="translate(-222.98991,-313.66281)"
         id="path283" />
    </clipPath>
    <clipPath
       clipPathUnits="userSpaceOnUse"
       id="clipPath19-9">
      <path
         d="M 0,500 H 500 V 0 H 0 Z"
         transform="translate(-129.981,-349.17721)"
         id="path19-7" />
    </clipPath>
    <clipPath
       clipPathUnits="userSpaceOnUse"
       id="clipPath21-8">
      <path
         d="M 0,500 H 500 V 0 H 0 Z"
         transform="translate(-268.70311,-250.43901)"
         id="path21-2" />
    </clipPath>
    <clipPath
       clipPathUnits="userSpaceOnUse"
       id="clipPath23-9">
      <path
         d="M 0,500 H 500 V 0 H 0 Z"
         transform="translate(-241.87401,-303.34721)"
         id="path23-1" />
    </clipPath>
    <clipPath
       clipPathUnits="userSpaceOnUse"
       id="clipPath25-4">
      <path
         d="M 0,500 H 500 V 0 H 0 Z"
         transform="translate(-398.52831,-314.93311)"
         id="path25-0" />
    </clipPath>
    <clipPath
       clipPathUnits="userSpaceOnUse"
       id="clipPath27-4">
      <path
         d="M 0,500 H 500 V 0 H 0 Z"
         transform="translate(-280.88281,-346.28911)"
         id="path27-1" />
    </clipPath>
    <clipPath
       clipPathUnits="userSpaceOnUse"
       id="clipPath29-3">
      <path
         d="M 0,500 H 500 V 0 H 0 Z"
         transform="translate(-204.70171,-286.52931)"
         id="path29-9" />
    </clipPath>
    <clipPath
       clipPathUnits="userSpaceOnUse"
       id="clipPath31-3">
      <path
         d="M 0,500 H 500 V 0 H 0 Z"
         transform="translate(-356.11621,-309.65921)"
         id="path31-9" />
    </clipPath>
    <clipPath
       clipPathUnits="userSpaceOnUse"
       id="clipPath39-2">
      <path
         d="M 0,500 H 500 V 0 H 0 Z"
         transform="translate(-214.87111,-401.89991)"
         id="path39-4" />
    </clipPath>
    <clipPath
       clipPathUnits="userSpaceOnUse"
       id="clipPath41-1">
      <path
         d="M 0,500 H 500 V 0 H 0 Z"
         transform="translate(-372.42481,-398.31201)"
         id="path41-3" />
    </clipPath>
    <clipPath
       clipPathUnits="userSpaceOnUse"
       id="clipPath13">
      <path
         d="M 0,500 H 500 V 0 H 0 Z"
         transform="translate(-467.79651,-141.4079)"
         id="path13" />
    </clipPath>
    <clipPath
       clipPathUnits="userSpaceOnUse"
       id="clipPath19-9-1">
      <path
         d="M 0,500 H 500 V 0 H 0 Z"
         transform="translate(-129.981,-349.17721)"
         id="path19-7-5" />
    </clipPath>
    <clipPath
       clipPathUnits="userSpaceOnUse"
       id="clipPath21-8-0">
      <path
         d="M 0,500 H 500 V 0 H 0 Z"
         transform="translate(-268.70311,-250.43901)"
         id="path21-2-8" />
    </clipPath>
    <clipPath
       clipPathUnits="userSpaceOnUse"
       id="clipPath23-9-4">
      <path
         d="M 0,500 H 500 V 0 H 0 Z"
         transform="translate(-241.87401,-303.34721)"
         id="path23-1-4" />
    </clipPath>
    <clipPath
       clipPathUnits="userSpaceOnUse"
       id="clipPath25-4-9">
      <path
         d="M 0,500 H 500 V 0 H 0 Z"
         transform="translate(-398.52831,-314.93311)"
         id="path25-0-6" />
    </clipPath>
    <clipPath
       clipPathUnits="userSpaceOnUse"
       id="clipPath27-4-9">
      <path
         d="M 0,500 H 500 V 0 H 0 Z"
         transform="translate(-280.88281,-346.28911)"
         id="path27-1-3" />
    </clipPath>
    <clipPath
       clipPathUnits="userSpaceOnUse"
       id="clipPath29-3-6">
      <path
         d="M 0,500 H 500 V 0 H 0 Z"
         transform="translate(-204.70171,-286.52931)"
         id="path29-9-8" />
    </clipPath>
    <clipPath
       clipPathUnits="userSpaceOnUse"
       id="clipPath31-3-8">
      <path
         d="M 0,500 H 500 V 0 H 0 Z"
         transform="translate(-356.11621,-309.65921)"
         id="path31-9-3" />
    </clipPath>
  </defs>
  <sodipodi:namedview
     id="namedview1"
     pagecolor="#000000"
     bordercolor="#000000"
     borderopacity="0.25"
     inkscape:showpageshadow="2"
     inkscape:pageopacity="0.0"
     inkscape:pagecheckerboard="0"
     inkscape:deskcolor="#d1d1d1"
     inkscape:zoom="0.55424999"
     inkscape:cx="25.25936"
     inkscape:cy="132.61164"
     inkscape:window-width="1920"
     inkscape:window-height="974"
     inkscape:window-x="-11"
     inkscape:window-y="-11"
     inkscape:window-maximized="1"
     inkscape:current-layer="layer-MC1"
     inkscape:export-bgcolor="#00000000">
    <inkscape:page
       x="0"
       y="0"
       inkscape:label="1"
       id="page1"
       width="666.66669"
       height="666.66669"
       margin="0"
       bleed="0" />
  </sodipodi:namedview>
  <g
     id="layer-MC0"
     inkscape:groupmode="layer"
     inkscape:label="BACKGROUND">
    <path
       id="path1"
       d="M 0,0 H 500 V 500 H 0 Z"
       style="fill:none;fill-opacity:1;fill-rule:nonzero;stroke:none"
       transform="matrix(1.3333333,0,0,-1.3333333,0,666.66667)" />
  </g>
  <g
     id="layer-MC1"
     inkscape:groupmode="layer"
     inkscape:label="OBJECTS">
    <path
       id="path38"
       d="m 0,0 c -1.409,3.285 -4.73,4.971 -8.168,5.218 -3.415,0.246 -6.653,-1.097 -9.677,-2.604 -1.63,3.937 -5.519,6.72 -9.679,7.549 -5.171,1.029 -10.332,-0.725 -14.768,-3.359 -2.235,5.36 -10.102,6.692 -15.195,7.218 -7.262,0.749 -15.462,-0.826 -19.216,-7.787 -0.839,-1.556 -1.348,-3.231 -1.483,-4.922 -3.556,-1.36 -6.41,-4.39 -7.601,-8.084 -1.617,-5.017 0.652,-10.169 4.893,-13.062 2.025,-1.38 4.508,-2.191 6.963,-2.194 1.324,-0.002 2.552,0.291 3.81,0.662 0.582,0.173 1.369,0.502 1.966,0.207 0.581,-0.287 0.893,-1.074 1.186,-1.617 2.61,-4.828 7.454,-7.716 12.92,-8.034 6.061,-0.352 11.82,2.873 15.755,7.329 5.762,-3.821 13.323,-4.855 20.064,-3.885 3.447,0.496 6.897,1.87 9.042,4.731 1.601,2.134 2.273,4.782 1.709,7.31 C -1.489,-13.245 2.624,-6.117 0,0"
       style="fill:#0088aa;fill-opacity:1;fill-rule:nonzero;stroke:none"
       transform="matrix(1.3333333,0,0,-1.3333333,307.57357,114.39903)"
       clip-path="url(#clipPath39-2)" />
    <path
       id="path40"
       d="m 0,0 c -1.409,3.285 -4.73,4.971 -8.168,5.218 -3.415,0.246 -6.653,-1.097 -9.678,-2.604 -1.629,3.937 -5.517,6.72 -9.678,7.549 -5.171,1.029 -10.332,-0.725 -14.768,-3.359 -2.235,5.36 -10.102,6.692 -15.195,7.217 -7.262,0.75 -15.462,-0.825 -19.216,-7.786 -0.84,-1.556 -1.349,-3.231 -1.483,-4.922 -3.555,-1.361 -6.41,-4.391 -7.601,-8.084 -1.617,-5.018 0.651,-10.169 4.893,-13.062 2.025,-1.38 4.508,-2.191 6.963,-2.195 1.325,-0.001 2.552,0.292 3.81,0.663 0.582,0.172 1.369,0.502 1.966,0.207 0.582,-0.287 0.892,-1.074 1.186,-1.617 2.61,-4.828 7.454,-7.716 12.92,-8.034 6.061,-0.352 11.82,2.873 15.755,7.329 5.763,-3.821 13.323,-4.855 20.065,-3.885 3.447,0.496 6.896,1.87 9.041,4.731 1.601,2.134 2.274,4.782 1.709,7.31 C -1.489,-13.245 2.624,-6.117 0,0"
       style="fill:#009dc5;fill-opacity:1;fill-rule:nonzero;stroke:none"
       transform="matrix(1.3333333,0,0,-1.3333333,369.69749,94.825659)"
       clip-path="url(#clipPath41-1)" />
    <path
       id="path12"
       d="m 0,0 c -2.31,3.071 -6.568,4.525 -10.273,3.508 -3.779935,-2.1907079 -31.470688,31.479756 -29.06,-0.611 -3.679,2.888 -9.283,2.998 -13.073,0.257 -1.341,-0.969 -2.537,-2.399 -3.455,-4.035 -15.947,1.529 -19.894,-9.506 -19.894,-9.506 h 18.503 58.68 C 3.435,-7.109 2.31,-3.071 0,0"
       style="fill:#280b17;fill-opacity:0.164414;fill-rule:nonzero;stroke:none"
       transform="matrix(5.3697324,0,0,1.1030201,502.91263,391.5673)"
       clip-path="url(#clipPath13)"
       sodipodi:nodetypes="ccccccccc" />
    <path
       id="path18"
       d="m 0,0 c 0.164,-3.015 0.421,-5.646 0.432,-8.277 0.157,-39.625 0.282,-79.249 0.414,-118.874 0.003,-0.813 0,-1.627 0,-2.793 2.368,0.761 4.414,1.418 6.605,2.122 0,1.02 0.007,1.915 -10e-4,2.81 -0.178,22.641 -0.347,45.284 -0.541,67.926 -0.144,16.828 -0.337,33.656 -0.466,50.485 -0.016,2.168 0.226,4.338 0.358,6.677 4.791,0.066 9.377,0.142 13.964,0.188 4.599,0.047 9.199,0.045 13.798,0.098 4.562,0.053 9.131,-0.016 13.669,0.239 v 5.327 c -0.934,0 -1.681,-0.005 -2.429,0.001 C 34.949,6.017 24.095,6.156 13.241,6.177 6.156,6.19 -0.929,5.999 -8.015,5.955 -19.023,5.886 -30.032,5.867 -41.041,5.82 -41.916,5.817 -42.792,5.767 -43.818,5.734 -43.69,3.555 -43.579,1.643 -43.459,-0.392 -28.85,-0.26 -14.552,-0.131 0,0 m -7.249,-7.821 c -1.214,0 -2.038,0.008 -2.862,-0.001 -11.99,-0.128 -23.979,-0.26 -35.969,-0.386 -0.753,-0.008 -1.516,-0.049 -2.259,0.047 -1.782,0.231 -2.278,0.75 -2.408,2.613 -0.319,4.591 -0.674,9.182 -0.855,13.78 -0.141,3.581 1.129,4.883 4.727,5.248 0.823,0.084 1.657,0.082 2.485,0.083 31.145,0.056 62.29,0.107 93.435,0.16 0.227,0 0.453,-0.007 0.679,0 3.794,0.11 5.573,-0.515 6.256,-5.693 0.43,-3.26 0.171,-6.636 -0.04,-9.944 -0.082,-1.287 -0.74,-2.61 -1.407,-3.759 -0.358,-0.619 -1.241,-1.13 -1.974,-1.288 -1.239,-0.267 -2.544,-0.275 -3.823,-0.288 -10.557,-0.106 -21.114,-0.187 -31.671,-0.283 -0.817,-0.008 -1.634,-0.071 -2.721,-0.12 0,-1.111 -0.007,-2.07 0.001,-3.028 0.301,-38.799 0.603,-77.597 0.905,-116.395 0.004,-0.528 0.014,-1.057 0.01,-1.586 -0.028,-3.122 -1.572,-5.344 -4.489,-6.306 -3.435,-1.131 -6.906,-2.155 -10.337,-3.296 -5.183,-1.725 -7.365,1.473 -7.364,5.426 0.005,26.646 -0.155,53.292 -0.243,79.939 -0.046,13.964 -0.052,27.929 -0.076,41.894 -0.001,0.965 0,1.931 0,3.183"
       style="fill:#b3b30f;fill-opacity:1;fill-rule:nonzero;stroke:none"
       transform="matrix(1.3333333,0,0,-1.3333333,128.16709,201.38584)"
       clip-path="url(#clipPath19-9-1)" />
    <path
       id="path20"
       d="m 0,0 c 6.681,2.094 12.839,3.854 18.871,5.974 4.253,1.493 8.466,3.22 12.466,5.291 7.854,4.067 13.655,10.164 16.439,18.712 1.232,3.782 2.118,7.695 2.912,11.599 1.717,8.44 2.984,16.946 2.496,25.603 -0.238,4.215 -0.518,8.434 -0.975,12.63 -0.527,4.827 -1.866,9.451 -3.972,13.851 -1.971,4.119 -5.038,7.123 -9.122,9.058 -3.706,1.755 -7.643,2.725 -11.72,3.192 -7.916,0.905 -15.809,0.192 -23.706,-0.267 -1.263,-0.073 -2.52,-0.231 -4.051,-0.376 C -0.241,70.265 -0.121,35.385 0,0 m -8.16,52.362 c 0,17.894 0.004,35.789 -0.006,53.683 -10e-4,1.768 0.099,3.455 1.477,4.818 1,0.99 2.086,1.748 3.501,1.902 2.098,0.229 4.197,0.473 6.302,0.604 8.43,0.525 16.858,1.197 25.304,0.221 4.835,-0.559 9.501,-1.752 13.895,-3.824 5.944,-2.803 10.329,-7.205 13.111,-13.214 C 57.859,91.293 59.272,85.773 60,80.046 60.839,73.439 61.066,66.805 60.936,60.156 60.808,53.639 59.584,47.257 58.451,40.867 57.661,36.408 56.744,31.991 55.246,27.692 51.584,17.18 44.666,9.498 34.913,4.418 30.717,2.232 26.299,0.378 21.819,-1.15 14.906,-3.508 7.854,-5.46 0.859,-7.577 c -2.046,-0.619 -3.988,-0.341 -5.926,0.561 -1.526,0.71 -2.387,1.801 -2.563,3.434 -0.088,0.824 -0.093,1.658 -0.093,2.487 -0.005,17.819 -0.437,35.638 -0.437,53.457 -0.144,0 0.144,0 0,0"
       style="fill:#b3b30f;fill-opacity:1;fill-rule:nonzero;stroke:none"
       transform="matrix(1.3333333,0,0,-1.7104583,313.12989,376.06199)"
       clip-path="url(#clipPath21-8-0)" />
    <path
       id="path22"
       d="m 0,0 c -0.125,2.456 -0.199,6.534 -0.564,10.585 -0.702,7.773 -2.275,15.362 -5.388,22.566 -1.778,4.113 -3.989,7.957 -7.238,11.111 -5.47,5.308 -11.712,5.857 -18.058,1.604 -2.594,-1.739 -4.764,-3.929 -6.699,-6.362 -3.263,-4.101 -5.817,-8.63 -7.798,-13.464 -7.842,-19.143 -9.701,-38.946 -6.237,-59.27 1.093,-6.418 3.05,-12.605 6.254,-18.329 1.743,-3.113 3.805,-5.987 6.629,-8.229 4.61,-3.657 9.538,-4.164 14.768,-1.419 2.985,1.567 5.429,3.79 7.606,6.327 2.717,3.165 4.93,6.666 6.784,10.394 C -3.228,-30.989 -0.578,-16.552 0,0 m -61.427,-13.821 c 0.171,14.574 2.712,29.578 8.954,43.83 2.678,6.116 6.045,11.816 10.583,16.763 2.671,2.913 5.654,5.446 9.204,7.226 7.561,3.793 14.849,3.279 21.776,-1.581 3.833,-2.689 6.691,-6.28 9.065,-10.276 3.824,-6.434 6.179,-13.436 7.529,-20.74 4.046,-21.907 2.063,-43.28 -6.235,-63.983 -2.997,-7.477 -7.056,-14.345 -12.859,-20.054 -2.436,-2.398 -5.135,-4.443 -8.238,-5.901 -7.322,-3.438 -14.331,-2.831 -20.981,1.753 -3.534,2.436 -6.26,5.646 -8.54,9.248 -3.796,6 -6.128,12.588 -7.728,19.461 -1.788,7.681 -2.473,15.483 -2.53,24.254"
       style="fill:#0088aa;fill-opacity:1;fill-rule:nonzero;stroke:none"
       transform="matrix(1.3333333,0,0,-1.5885826,277.35776,276.91407)"
       clip-path="url(#clipPath23-9-4)" />
    <path
       id="path24"
       d="m 0,0 c 0.048,8.917 -1.058,15.957 -3.721,22.713 -2.103,5.337 -5.042,10.123 -9.459,13.881 -4.415,3.756 -9.486,5.493 -15.286,4.749 -4.31,-0.553 -8.029,-2.491 -11.372,-5.193 -3.864,-3.124 -6.87,-6.97 -9.306,-11.277 -4.187,-7.405 -6.49,-15.393 -7.282,-23.835 -0.857,-9.141 -0.035,-18.084 3.262,-26.714 2.075,-5.43 5.002,-10.312 9.45,-14.155 3.091,-2.67 6.599,-4.476 10.718,-4.932 5.887,-0.653 10.982,1.287 15.576,4.808 3.762,2.883 6.734,6.478 9.151,10.527 C -2.554,-19.854 -0.075,-9.405 0,0 m 7.757,-0.812 c -0.117,-9.356 -2.661,-20.576 -8.433,-30.959 -3.376,-6.075 -7.706,-11.35 -13.46,-15.347 -4.087,-2.84 -8.543,-4.753 -13.522,-5.358 -6.243,-0.758 -11.987,0.675 -17.274,3.979 -6.415,4.009 -10.768,9.802 -13.96,16.542 -3.103,6.552 -4.804,13.502 -5.351,20.699 -1.048,13.779 1.323,26.913 7.937,39.144 3.455,6.391 7.955,11.918 14.009,16.038 5.795,3.943 12.137,5.976 19.22,5.195 6.146,-0.678 11.362,-3.371 15.875,-7.492 C -1.603,36.517 1.979,30.113 4.411,23.016 6.781,16.097 7.773,8.951 7.757,-0.812"
       style="fill:#0088aa;fill-opacity:1;fill-rule:nonzero;stroke:none"
       transform="matrix(1.3707977,0,0,-2.1030872,489.93954,288.98278)"
       clip-path="url(#clipPath25-4-9)" />
    <path
       id="path26"
       d="m 0,0 c 0.403,-25.935 0.804,-51.607 1.204,-77.385 0.511,0.055 0.824,0.023 1.082,0.127 3.63,1.467 7.305,2.836 10.863,4.46 6.186,2.824 10.108,7.644 12.082,14.151 1.344,4.431 1.871,8.989 2.471,13.547 1.086,8.238 1.879,16.482 1.103,24.805 -0.421,4.512 -0.846,8.978 -2.961,13.138 C 24.219,-3.961 21.801,-2 18.374,-1.149 14.478,-0.181 10.52,0.283 6.514,0.272 4.428,0.267 2.342,0.104 0,0 m -7.144,-39.242 c -0.215,13.36 -0.42,26.72 -0.662,40.079 -0.028,1.568 0.311,2.967 1.144,4.293 0.776,1.238 1.844,1.943 3.272,2.169 7.534,1.191 15.017,0.926 22.482,-0.623 7.768,-1.613 12.539,-6.447 15.151,-13.74 1.467,-4.099 1.871,-8.366 2.278,-12.654 0.842,-8.861 -0.005,-17.63 -1.151,-26.403 -0.723,-5.542 -1.418,-11.069 -3.287,-16.381 -2.599,-7.386 -7.23,-13.114 -14.247,-16.543 -5.064,-2.475 -10.427,-4.337 -15.658,-6.466 -0.208,-0.085 -0.441,-0.105 -0.659,-0.161 -4.605,-1.178 -7.945,1.367 -8.022,6.125 -0.216,13.435 -0.428,26.87 -0.641,40.305"
       style="fill:#b3b30f;fill-opacity:1;fill-rule:nonzero;stroke:none"
       transform="matrix(1.3333333,0,0,-1.7104583,329.36949,212.1144)"
       clip-path="url(#clipPath27-4-9)" />
    <path
       id="path28"
       d="m 0,0 c 0.123,-2.193 0.207,-5.668 0.539,-9.119 0.463,-4.808 1.175,-9.591 2.97,-14.12 0.552,-1.393 1.206,-2.778 2.027,-4.025 1.624,-2.465 3.035,-2.598 5.014,-0.346 1.281,1.456 2.471,3.093 3.275,4.846 1.44,3.142 2.804,6.361 3.77,9.673 4.129,14.154 5.163,28.602 3.587,43.239 -0.437,4.053 -1.228,8.06 -2.731,11.873 -0.549,1.392 -1.224,2.767 -2.047,4.013 -1.655,2.507 -2.931,2.608 -4.982,0.346 C 10.319,45.163 9.289,43.799 8.568,42.333 7.241,39.635 5.967,36.879 5.022,34.03 1.5,23.408 0.263,12.415 0,0 m -7.678,3.173 c 0.187,10.446 1.7,22.832 5.866,34.792 1.32,3.787 2.856,7.5 5.239,10.743 1.325,1.804 2.841,3.56 4.583,4.946 4.305,3.426 9.578,2.414 12.918,-0.955 1.781,-1.797 3.027,-3.932 4.049,-6.222 2.177,-4.875 3.29,-10.04 3.876,-15.298 1.779,-15.936 0.528,-31.64 -3.975,-47.052 -1.208,-4.135 -2.711,-8.178 -4.962,-11.868 -1.172,-1.919 -2.468,-3.825 -4.018,-5.44 -5.427,-5.658 -12.163,-5.039 -16.652,1.421 -2.406,3.463 -3.729,7.391 -4.7,11.448 C -7,-13.854 -7.703,-6.944 -7.678,3.173"
       style="fill:#00aad4;fill-opacity:1;fill-rule:nonzero;stroke:none"
       transform="matrix(1.3333333,0,0,-1.5665795,227.79469,297.9262)"
       clip-path="url(#clipPath29-3-6)" />
    <path
       id="path30"
       d="m 0,0 c -0.019,-4.307 0.757,-10.183 2.876,-15.834 1.065,-2.844 2.42,-5.531 4.569,-7.73 3.203,-3.278 6.534,-3.423 9.948,-0.363 1,0.897 1.925,1.934 2.665,3.054 1.032,1.566 2.044,3.194 2.741,4.926 5.006,12.422 5.503,25.05 1.449,37.827 -0.895,2.822 -2.23,5.445 -4.146,7.725 -3.568,4.244 -7.48,4.389 -11.374,0.432 C 8.097,29.395 7.473,28.713 7,27.954 6.007,26.358 4.983,24.759 4.208,23.054 1.126,16.278 0.013,9.093 0,0 m -7.844,1.113 c 0.211,9.399 1.537,17.916 5.335,25.908 1.565,3.295 3.517,6.329 6.157,8.877 6.901,6.66 15.417,6.377 21.871,-0.74 2.781,-3.067 4.626,-6.683 5.987,-10.557 2.874,-8.182 3.611,-16.623 2.891,-25.213 -0.558,-6.659 -2.001,-13.116 -4.825,-19.21 -1.596,-3.446 -3.598,-6.626 -6.352,-9.284 -2.037,-1.966 -4.341,-3.511 -7.092,-4.279 -4.665,-1.302 -8.792,-0.089 -12.491,2.843 -2.895,2.294 -4.92,5.286 -6.533,8.567 -2.663,5.419 -3.98,11.207 -4.564,17.178 -0.212,2.176 -0.286,4.365 -0.384,5.91"
       style="fill:#00aad4;fill-opacity:1;fill-rule:nonzero;stroke:none"
       transform="matrix(1.3707977,0,0,-2.1384782,431.80113,302.00518)"
       clip-path="url(#clipPath31-3-8)" />
  </g>
</svg>
