<?xml version="1.0" encoding="UTF-8" standalone="no"?>
<!-- Uploaded to: SVG Repo, www.svgrepo.com, Generator: SVG Repo Mixer Tools -->

<svg
   version="1.1"
   id="_x36_"
   viewBox="0 0 512 512"
   xml:space="preserve"
   sodipodi:docname="chalkBoard.svg"
   inkscape:version="1.3 (0e150ed6c4, 2023-07-21)"
   xmlns:inkscape="http://www.inkscape.org/namespaces/inkscape"
   xmlns:sodipodi="http://sodipodi.sourceforge.net/DTD/sodipodi-0.dtd"
   xmlns="http://www.w3.org/2000/svg"
   xmlns:svg="http://www.w3.org/2000/svg"><defs
   id="defs136" /><sodipodi:namedview
   id="namedview136"
   pagecolor="#ffffff"
   bordercolor="#000000"
   borderopacity="0.25"
   inkscape:showpageshadow="2"
   inkscape:pageopacity="0.0"
   inkscape:pagecheckerboard="0"
   inkscape:deskcolor="#d1d1d1"
   inkscape:zoom="1.4433594"
   inkscape:cx="270.20298"
   inkscape:cy="296.18403"
   inkscape:window-width="1920"
   inkscape:window-height="974"
   inkscape:window-x="-11"
   inkscape:window-y="-11"
   inkscape:window-maximized="1"
   inkscape:current-layer="g136" />&#10;<g
   id="g136"
   transform="translate(0.69282815,65.818674)">&#10;	<rect
   style="fill:#008080"
   width="510.811"
   height="306.01099"
   id="rect1"
   x="0"
   y="0" />&#10;	<path
   style="fill:#008080;fill-opacity:1"
   d="m 39.523856,2.0784825 v 0.489 c -0.21,3.707 6.015,0.77 8.464,1.679 -2.238,4.476 -7.484,3.217 -11.821,1.679 0.769,-1.049 1.469,-2.168 1.678,-3.847 H -1.4641436 V 308.08948 h 1.18900004 v -0.56 H 276.63886 c -0.49,-0.979 -0.979,-2.028 -1.259,-3.218 -0.14,-0.42 -0.28,-0.909 -0.28,-1.329 -0.21,-0.769 -0.28,-1.539 -0.35,-2.448 v -0.07 c -0.07,-0.63 -0.07,-1.119 -0.07,-1.749 v -0.21 c 0,-6.995 3.427,-12.66 7.694,-12.66 h 70.715 0.21 13.709 c 4.267,0 7.764,5.666 7.764,12.66 0,0.07 -0.07,0.14 -0.07,0.14 0.07,0.14 0.07,0.21 0.07,0.35 0,3.288 -0.769,6.225 -2.028,8.534 h 12.73 c -0.49,-0.979 -0.979,-2.028 -1.259,-3.218 -0.14,-0.42 -0.28,-0.909 -0.28,-1.329 -0.21,-0.769 -0.28,-1.539 -0.35,-2.448 v -0.07 c -0.07,-0.63 -0.07,-1.119 -0.07,-1.749 v -0.21 c 0,-6.995 3.427,-12.66 7.694,-12.66 h 84.634 c 4.266,0 7.764,5.666 7.764,12.66 0,0.07 -0.07,0.14 -0.07,0.14 0,0.14 0.07,0.21 0.07,0.35 0,3.288 -0.769,6.225 -2.028,8.534 h 27.768 v -127.37 c -2.378,0.21 -4.616,0.35 -6.155,1.119 -2.658,-2.658 1.189,-4.407 6.155,-5.036 V 2.0784825 Z m 18.606,276.9829975 c -4.267,8.114 -10.353,2.029 0,0 z m 25.39,9.583 c -0.35,-0.21 -0.7,-0.42 -0.979,-0.769 z m 69.036004,10.632 c -0.28,1.469 -1.119,2.448 -2.378,3.008 -0.629,0.21 -1.329,0.42 -2.168,0.49 -1.189,0.14 -2.518,0.07 -3.917,-0.07 v -6.785 z m 117.997,-13.08 c -0.14,0.28 -0.14,0.699 0,1.259 -0.56,-0.28 -0.979,-0.42 -1.259,-0.63 z M 466.05086,7.6744825 c -0.21,6.2250005 -2.378,4.1970005 -6.715,3.3570005 0.42,-3.0080005 2.867,-3.8470005 6.715,-3.3570005 z m 40.498,70.7840005 h -3.357 v -3.357 h 3.357 z m -5.106,-37.071 c 0.629,1.888 3.008,4.267 3.427,1.679 l 1.679,-8.464 c 6.015,3.498 -2.868,6.016 -5.106,6.785 z"
   id="path1"
   sodipodi:nodetypes="ccccccccccccccsssccsscsccccccssssscscccccccccccccccccccccccccccccccccccc" />&#10;	<path
   style="fill:#5c7b71"
   d="m 135.423,140.448 c -0.501,-0.091 -0.951,-0.157 -1.377,-0.212 v 1.526 c 0.482,-0.3 0.952,-0.723 1.377,-1.314 z"
   id="path2" />&#10;	<path
   style="fill:#5c7b71"
   d="m 37.651,76.384 c -1.687,0 -2.011,-1.372 -3.382,-1.688 0.019,1.688 -1.345,2.008 -1.672,3.371 1.691,-0.019 2.007,1.375 3.367,1.699 0,-1.717 1.359,-2.023 1.687,-3.382 z"
   id="path3" />&#10;	<path
   style="fill:#5c7b71"
   d="m 132.27,146.209 c -0.101,0.268 -0.182,0.577 -0.21,0.988 4.391,1.001 3.412,-1.245 1.986,-1.811 v 0.822 h -1.776 z"
   id="path4" />&#10;	<path
   style="fill:#5c7b71"
   d="m 192.741,111.79 c 6.998,1.613 0.358,-5.051 0,0 z"
   id="path5" />&#10;	<path
   style="fill:#5c7b71"
   d="m 202.858,96.618 c -1.118,0 -2.249,0 -3.367,0 0,1.108 0,2.249 0,3.36 1.118,0 2.249,0 3.367,0 0,-1.111 0,-2.252 0,-3.36 z"
   id="path6" />&#10;	<path
   style="fill:#5c7b71"
   d="m 285.477,265.193 c -0.426,3.401 -8.939,-6.603 -10.117,1.691 1.612,3.529 15.541,1.33 10.117,-1.691 z"
   id="path7" />&#10;	<path
   style="fill:#5c7b71"
   d="m 298.954,61.212 c -4.335,-4.137 -8.094,1.8 -10.121,5.051 6.072,1.013 9.526,-0.606 10.121,-5.051 z"
   id="path8" />&#10;	<path
   style="fill:#5c7b71"
   d="m 285.477,256.763 c 1.122,0 2.249,0 3.356,0 0,-1.122 0,-2.245 0,-3.367 -1.108,0 -2.234,0 -3.356,0 0,1.122 0,2.245 0,3.367 z"
   id="path9" />&#10;	<path
   style="fill:#5c7b71"
   d="m 383.676,278.681 c 2.23,4.227 -7.857,4.095 -1.683,6.738 -1.209,-4.58 7.951,1.213 6.735,-3.367 -2.412,-0.402 -2.838,-2.764 -5.052,-3.371 z"
   id="path10" />&#10;	<path
   style="fill:#5c7b71"
   d="m 229.851,98.291 c -3.488,1.032 -11.715,-2.723 -10.121,3.379 4.843,0.342 8.553,-0.426 10.121,-3.379 z"
   id="path11" />&#10;	<path
   style="fill:#5c7b71"
   d="m 233.218,201.133 c -2.912,-0.087 -4.332,1.299 -5.07,3.382 2.663,-0.184 5.854,0.207 5.07,-3.382 z"
   id="path12" />&#10;	<path
   style="fill:#5c7b71"
   d="m 234.898,145.502 c -1.119,0 -2.246,0 -3.383,0 0,1.119 0,2.238 0,3.368 1.137,0 2.263,0 3.383,0 0,-1.13 0,-2.248 0,-3.368 z"
   id="path13" />&#10;	<path
   style="fill:#5c7b71"
   d="m 211.307,99.979 c 0,1.118 0,2.253 0,3.382 1.669,0 3.352,0 5.05,0 0.212,-3.028 -1.668,-3.952 -5.05,-3.382 z"
   id="path14" />&#10;	<path
   style="fill:#5c7b71"
   d="m 236.585,106.721 c 6.998,1.627 0.343,-5.051 0,0 z"
   id="path15" />&#10;	<path
   style="fill:#5c7b71"
   d="m 250.066,88.166 c 5.944,-0.776 8.128,-5.348 11.808,-8.399 -6.622,-6.147 -5.276,-2.927 -18.554,-3.383 0.09,2.313 -0.784,3.703 -1.684,5.047 10.148,-4.965 1.891,3.578 8.43,6.735 z"
   id="path16" />&#10;	<path
   style="fill:#5c7b71"
   d="m 153.927,278.679 c 0.229,0.012 0.459,0.023 0.643,0.036 -0.177,0 -0.365,-0.016 -0.588,-0.034 -0.02,-10e-4 -0.035,-10e-4 -0.055,-0.002 z"
   id="path17" />&#10;	<path
   style="fill:#5c7b71"
   d="m 153.927,278.679 c -0.376,-0.019 -0.786,-0.038 -1.245,-0.054 0.379,0.014 0.791,0.026 1.245,0.054 z"
   id="path18" />&#10;	<path
   style="fill:#5c7b71"
   d="m 145.545,293.868 c 0,2.242 0,4.471 0,6.739 5.762,0.693 9.601,-0.52 8.437,-6.739 -2.829,0 -5.631,0 -8.437,0 z"
   id="path19" />&#10;	<path
   style="fill:#5c7b71"
   d="m 159.029,49.407 c -1.119,0 -2.226,0 -3.367,0 0,1.13 0,2.249 0,3.371 1.141,0 2.248,0 3.367,0 0,-1.123 0,-2.241 0,-3.371 z"
   id="path20" />&#10;	<path
   style="fill:#5c7b71"
   d="m 165.779,276.997 c 4.211,0.286 5.288,-2.583 6.758,-5.051 -4.227,-0.293 -5.278,2.588 -6.758,5.051 z"
   id="path21" />&#10;	<path
   style="fill:#5c7b71"
   d="m 169.15,51.109 c 7.002,1.59 0.34,-5.066 0,0 z"
   id="path22" />&#10;	<path
   style="fill:#5c7b71"
   d="m 153.982,152.234 c 0,1.699 0,3.383 0,5.07 4.919,2.478 4.919,-7.549 0,-5.07 z"
   id="path23" />&#10;	<path
   style="fill:#5c7b71"
   d="m 177.584,258.458 c 1.126,0 2.249,0 3.352,0 0,-1.137 0,-2.245 0,-3.367 -1.103,0 -2.226,0 -3.352,0 0,1.122 0,2.23 0,3.367 z"
   id="path24" />&#10;	<path
   style="fill:#5c7b71"
   d="m 179.267,49.407 c -2.331,-6.064 -1.032,-10.735 -5.066,-11.805 0.388,3.183 -1.895,3.725 -1.665,6.754 6.393,-2.483 0.321,7.537 6.731,5.051 z"
   id="path25" />&#10;	<path
   style="fill:#5c7b71"
   d="m 162.412,261.825 c -1.68,0 -3.383,0 -5.063,0 0,-1.679 0,-3.367 0,-5.062 -3.846,-0.456 -6.339,0.41 -6.738,3.383 3.077,0.428 8.32,7.178 11.801,1.679 z"
   id="path26" />&#10;	<path
   style="fill:#5c7b71"
   d="m 83.179,282.052 c -0.535,7.902 7.782,4.52 8.419,0 -3.205,-3.149 -4.227,-0.176 -8.419,0 z"
   id="path27" />&#10;	<path
   style="fill:#5c7b71"
   d="m 20.796,24.117 c -6.381,0.369 -9.602,3.887 -11.801,8.437 6.083,-0.93 5.45,-4.907 11.801,-8.437 z"
   id="path28" />&#10;	<path
   style="fill:#5c7b71"
   d="m 149.368,278.474 c -1.386,-0.06 -1.932,-0.067 0,0 z"
   id="path29" />&#10;	<path
   style="fill:#5c7b71"
   d="m 103.403,160.667 c 6.998,1.612 0.35,-5.051 0,0 z"
   id="path30" />&#10;	<path
   style="fill:#5c7b71"
   d="m 94.965,126.944 c 4.061,-4.041 -5.526,-4.358 -5.055,-1.665 -0.026,-0.117 5.703,1.032 5.055,1.665 z"
   id="path31" />&#10;	<path
   style="fill:#5c7b71"
   d="m 93.293,276.997 c 7.01,1.612 0.346,-5.05 0,0 z"
   id="path32" />&#10;	<path
   style="fill:#5c7b71"
   d="m 135.423,120.209 c 1.086,-5.232 0.818,-10.901 -3.363,-11.786 -3.646,2.953 -5.352,13.094 3.363,11.786 z"
   id="path33" />&#10;	<path
   style="fill:#5c7b71"
   d="m 145.545,89.868 c -6.001,-0.369 -10.088,1.146 -11.79,5.055 4.712,0.896 8.762,2.479 13.477,3.367 1.398,-4.76 -2.377,-4.357 -1.687,-8.422 z"
   id="path34" />&#10;	<path
   style="fill:#5c7b71"
   d="m 125.66,230.542 h -2.443 c 1.132,0.521 1.968,0.426 2.443,0 z"
   id="path35" />&#10;	<path
   style="fill:#5c7b71"
   d="m 118.571,150.55 c 4.282,0.874 6.543,2.882 6.754,-3.352 -3.861,-0.49 -6.339,0.402 -6.754,3.352 z"
   id="path36" />&#10;	<path
   style="fill:#5c7b71"
   d="M 49.458,2.19 C 47.211,6.613 41.98,5.42 37.645,3.875 38.382,2.787 39.084,1.663 39.277,0.013 h 1.685 c 0.018,0.158 0.035,0.334 0.053,0.509 -0.264,3.651 6.003,0.755 8.443,1.668 z"
   id="path37" />&#10;	<path
   style="fill:#5c7b71"
   d="m 27.534,172.472 c -0.268,-1.977 0.294,-4.783 -1.672,-5.062 -0.158,2.655 -4.309,1.326 -3.379,5.062 1.676,0 3.379,0 5.051,0 z"
   id="path38" />&#10;	<path
   style="fill:#5c7b71"
   d="m 59.574,276.997 c -10.359,1.997 -4.226,8.114 0,0 z"
   id="path39" />&#10;	<path
   style="fill:#5c7b71"
   d="m 83.179,125.279 c -1.94,-5.307 2.641,-4.11 3.363,-6.739 -4.061,1.552 -8.166,3.055 -11.797,5.04 4.061,-0.677 3.658,3.085 8.434,1.699 z"
   id="path40" />&#10;	<path
   style="fill:#5c7b71"
   d="m 76.441,125.279 c -2.798,-0.105 -4.222,1.202 -4.977,3.146 h 3.011 c 1.443,-0.263 2.44,-0.971 1.966,-3.146 z"
   id="path41" />&#10;	<path
   style="fill:#5c7b71"
   d="m 60.055,196.715 v -2.958 c -1.426,0.868 -1.426,2.085 0,2.958 z"
   id="path42" />&#10;	<path
   style="fill:#5c7b71"
   d="m 226.468,260.146 c -3.601,6.188 8.58,7.605 6.75,1.679 -0.312,-2.497 -4.069,-1.544 -6.75,-1.679 z"
   id="path43" />&#10;	<path
   style="fill:#5c7b71"
   d="m 226.468,248.344 c 3.838,0.456 6.332,-0.404 6.75,-3.371 -1.985,-2.14 -6.998,-1.344 -6.75,3.371 z"
   id="path44" />&#10;	<path
   style="fill:#5c7b71"
   d="m 260.172,265.193 c 7.006,1.612 0.354,-5.047 0,0 z"
   id="path45" />&#10;	<path
   style="fill:#5c7b71"
   d="m 317.505,49.407 c 0.237,-1.996 2.994,-3.827 0,-5.051 -0.249,1.984 -3.014,3.823 0,5.051 z"
   id="path46" />&#10;	<path
   style="fill:#5c7b71"
   d="m 337.74,224.738 c -8.671,4.061 5.793,4.355 0,0 z"
   id="path47" />&#10;	<path
   style="fill:#5c7b71"
   d="m 243.32,241.591 c 8.953,1.849 2.004,-5.108 0,0 z"
   id="path48" />&#10;	<path
   style="fill:#5c7b71"
   d="m 238.265,180.91 c -0.011,4.57 4.201,6.827 7.344,5.838 v -5.838 c -2.445,0 -4.898,0 -7.344,0 z"
   id="path49" />&#10;	<path
   style="fill:#5c7b71"
   d="m 438.882,113.475 c -2.802,-2.821 -9.895,-1.345 -15.172,-1.684 -1.175,8.467 14.626,3.868 15.172,1.684 z"
   id="path50" />&#10;	<path
   style="fill:#5c7b71"
   d="m 415.299,123.58 c 0.29,-3.676 -1.394,-5.348 -5.073,-5.04 -0.309,3.661 1.375,5.345 5.073,5.04 z"
   id="path51" />&#10;	<path
   style="fill:#5c7b71"
   d="m 405.174,24.117 c 5.127,4.61 -4.606,-5.123 0,0 z"
   id="path52" />&#10;	<path
   style="fill:#5c7b71"
   d="m 388.304,233.168 c 0,1.672 0,3.371 0,5.055 4.919,2.486 4.919,-7.533 0,-5.055 z"
   id="path53" />&#10;	<path
   style="fill:#5c7b71"
   d="m 418.652,46.043 c 6.998,1.609 0.347,-5.07 0,0 z"
   id="path54" />&#10;	<path
   style="fill:#5c7b71"
   d="m 403.491,42.661 c 4.181,6.588 2.452,-5.59 0,0 z"
   id="path55" />&#10;	<path
   style="fill:#5c7b71"
   d="m 389.995,224.738 c 3.183,-0.369 3.718,1.906 6.746,1.695 1.818,-2.298 1.539,-6.639 5.475,-6.812 -2.277,-0.727 -4.434,-1.704 -6.47,-2.935 -2.948,1.707 -5.597,5.139 -5.751,8.052 z"
   id="path56" />&#10;	<path
   style="fill:#5c7b71"
   d="m 427.097,93.236 c 6.998,1.612 0.324,-5.051 0,0 z"
   id="path57" />&#10;	<path
   style="fill:#5c7b71"
   d="m 440.57,169.104 c 0.237,-1.989 3.009,-3.827 0,-5.047 -0.233,1.996 -2.998,3.805 0,5.047 z"
   id="path58" />&#10;	<path
   style="fill:#5c7b71"
   d="m 438.882,118.54 c -8.67,4.065 5.809,4.343 0,0 z"
   id="path59" />&#10;	<path
   style="fill:#5c7b71"
   d="m 413.593,199.449 c 3.785,2.953 18.246,1.303 13.504,-3.387 -3.251,6.016 -13.485,-3.763 -13.504,3.387 z"
   id="path60" />&#10;	<path
   style="fill:#5c7b71"
   d="m 347.861,83.134 c -3.695,-0.316 -5.378,1.371 -5.066,5.032 3.676,0.312 5.359,-1.356 5.066,-5.032 z"
   id="path61" />&#10;	<path
   style="fill:#5c7b71"
   d="m 398.44,56.142 c -5.687,-5.111 -5.127,6.237 0,0 z"
   id="path62" />&#10;	<path
   style="fill:#5c7b71"
   d="m 371.451,138.745 c 0.102,-2.151 2.155,-2.316 1.684,-5.047 -1.978,0.263 -4.773,-0.298 -5.051,1.687 2.215,0.023 1.552,2.969 3.367,3.36 z"
   id="path63" />&#10;	<path
   style="fill:#5c7b71"
   d="m 351.228,61.212 c 4.177,0.256 8.17,0.312 8.418,-3.364 -4.177,-0.253 -8.165,-0.313 -8.418,3.364 z"
   id="path64" />&#10;	<path
   style="fill:#5c7b71"
   d="m 352.912,42.661 c -0.162,-2.633 0.222,-5.835 -3.383,-5.059 -0.09,2.9 1.304,4.332 3.383,5.059 z"
   id="path65" />&#10;	<path
   style="fill:#5c7b71"
   d="m 386.635,106.721 c 6.991,1.627 0.343,-5.051 0,0 z"
   id="path66" />&#10;	<path
   style="fill:#5c7b71"
   d="m 398.44,39.29 c -1.138,0 -2.26,0 -3.383,0 -3.74,4.979 2.953,6.117 3.383,0 z"
   id="path67" />&#10;	<path
   style="fill:#5c7b71"
   d="m 384.936,251.708 c 8.847,0.686 4.226,-5.71 6.734,-8.415 -6.67,-1.642 -5.227,4.859 -6.734,8.415 z"
   id="path68" />&#10;	<path
   style="fill:#5c7b71"
   d="m 504.638,76.384 c 1.122,0 2.241,0 3.367,0 0,-1.146 0,-2.245 0,-3.367 -1.126,0 -2.245,0 -3.367,0 0,1.122 0,2.221 0,3.367 z"
   id="path69" />&#10;	<path
   style="fill:#5c7b71"
   d="m 504.631,179.213 c 1.562,-0.755 3.827,-0.913 6.179,-1.159 v -3.914 c -4.932,0.649 -8.812,2.37 -6.179,5.073 z"
   id="path70" />&#10;	<path
   style="fill:#5c7b71"
   d="m 464.173,24.117 c 4.049,-4.045 -5.522,-4.355 -5.055,-1.665 -0.023,-0.135 5.71,1.021 5.055,1.665 z"
   id="path71" />&#10;	<path
   style="fill:#5c7b71"
   d="m 467.54,5.585 c -3.839,-0.482 -6.324,0.392 -6.735,3.36 4.301,0.874 6.531,2.871 6.735,-3.36 z"
   id="path72" />&#10;	<path
   style="fill:#5c7b71"
   d="m 283.41807,162.28478 c 0,1.138 0,2.26 0,3.383 1.688,0 3.368,0 5.055,0 0.218,-3.029 -1.673,-3.963 -5.055,-3.383 z"
   id="path73" />&#10;	<path
   style="fill:#5c7b71"
   d="m 457.426,32.554 c 0.102,-1.032 0.26,-2.011 1.692,-1.699 -0.008,0.946 1.363,1.918 1.687,0 -2.229,-0.018 -1.551,-2.937 -3.379,-3.371 -0.094,1.032 -0.241,2.008 -1.676,1.702 0.388,1.297 0.049,3.324 1.676,3.368 z"
   id="path74" />&#10;	<path
   style="fill:#5c7b71"
   d="m 461.591,89.547 c 0.668,-1.217 0.592,-2.413 -0.786,-3.046 -0.915,1.768 -2.931,2.425 -4.534,3.496 1.513,-0.303 3.095,-0.471 4.741,-0.471 0.195,0 0.384,0.017 0.579,0.021 z"
   id="path75" />&#10;	<path
   style="fill:#5c7b71"
   d="m 491.149,98.291 c 7.002,1.608 0.32,-5.036 0,0 z"
   id="path76" />&#10;	<path
   style="fill:#5c7b71"
   d="m 506.314,40.973 c -0.395,2.596 -2.772,0.253 -3.378,-1.683 2.233,-0.784 11.077,-3.281 5.07,-6.735 -2.162,4.358 -3.477,5.285 -8.422,3.368 -1.416,1.951 -2.23,4.52 -1.699,8.433 4.105,1.081 13.201,-1.153 8.429,-3.383 z"
   id="path77" />&#10;	<path
   style="fill:#5c7b71"
   d="m 494.532,132.014 c -6.542,-0.478 -12.317,-0.209 -15.158,2.99 v 3.602 c 7.886,-0.569 10.985,0.088 15.158,-6.592 z"
   id="path78" />&#10;	<path
   style="fill:#5c7b71"
   d="m 464.173,236.539 c 4.2,5.997 5.733,9.191 8.437,13.488 4.531,-4.12 5.906,-5.16 10.121,-11.804 -4.735,0.885 -8.776,2.486 -13.504,3.367 3.119,-2.952 0.207,-5.86 -5.054,-5.051 z"
   id="path79" />&#10;	<path
   style="fill:#5c7b71"
   d="m 337.74,93.236 c 7.006,1.612 0.328,-5.051 0,0 z"
   id="path80" />&#10;	<path
   style="fill:#5c7b71"
   d="m 471.33,282.365 c -2.98,0.388 -8.421,-1.69 -6.738,3.371 h 0.136 c 3.07,-0.266 5.514,-1.136 6.602,-3.371 z"
   id="path81" />&#10;	<path
   style="fill:#5c7b71"
   d="m 356.279,108.423 c 2.9,0.068 4.317,-1.3 5.051,-3.383 -2.889,-0.09 -4.313,1.289 -5.051,3.383 z"
   id="path82" />&#10;	<path
   style="fill:#5c7b71"
   d="m 356.279,229.786 c 8.938,1.83 1.978,-5.108 0,0 z"
   id="path83" />&#10;	<path
   style="fill:#5c7b71"
   d="m 464.173,252.028 c 5.126,4.611 -4.607,-5.13 0,0 z"
   id="path84" />&#10;	<path
   style="fill:#5c7b71"
   d="m 465.878,155.616 c -8.143,2.425 -4.418,1.375 -10.128,6.754 3.928,0 7.861,0 11.79,0 -0.28,-2.539 0.61,-6.234 -1.662,-6.754 z"
   id="path85" />&#10;	<path
   style="fill:#5c7b71"
   d="m 462.492,37.602 c 1.118,0 2.241,0 3.386,0 0,-1.122 0,-2.241 0,-3.363 -1.145,0 -2.267,0 -3.386,0 0,1.122 0,2.24 0,3.363 z"
   id="path86" />&#10;	<path
   style="fill:#5c7b71"
   d="m 376.518,250.028 c 11.164,-1.183 3.944,-8.392 0,0 z"
   id="path87" />&#10;	<rect
   x="-0.81099999"
   y="349.056"
   style="fill:#ddddde;stroke-width:1.00136"
   width="512.19666"
   height="23.990999"
   id="rect87" />&#10;	<rect
   x="-0.81099987"
   y="319.64999"
   style="fill:#be7f61;stroke-width:1.00203"
   width="512.88947"
   height="9.7919998"
   id="rect88" />&#10;	<rect
   x="-1.2683749"
   y="328.30533"
   style="fill:#be7f61;stroke-width:1.00203"
   width="512.88947"
   height="21.613001"
   id="rect89" />&#10;	<path
   style="fill:#be7f61;stroke-width:1.00203"
   d="M 512,305.451 V 319.65 H -0.88948444 V 306.011 H 277.5017 c 1.40469,2.238 3.30037,3.637 5.40791,3.637 h 84.97838 c 2.10653,0 4.00322,-1.399 5.40791,-3.637 h 13.48364 c 1.4047,2.238 3.30138,3.637 5.40792,3.637 h 84.97837 c 2.10654,0 4.00323,-1.399 5.40792,-3.637 h 28.23241 v -0.56 z"
   id="path89" />&#10;	<path
   style="opacity:0.1;fill:#ffffff;stroke-width:1.00136"
   d="m 509.22869,304.83666 v 14.199 H -2.9679694 v -13.639 H 275.04715 c 1.4028,2.238 3.29592,3.637 5.40061,3.637 h 84.86359 c 2.10369,0 3.99781,-1.399 5.40061,-3.637 h 13.46543 c 1.40279,2.238 3.29692,3.637 5.40061,3.637 h 84.86358 c 2.10369,0 3.99782,-1.399 5.40061,-3.637 h 28.19427 v -0.56 z"
   id="path90" />&#10;	&#10;	&#10;	<path
   style="fill:#be7f61;stroke-width:4.42775"
   d="M 383.30053,305.423 H 1.199 v 8.19811 h 382.55688 c -0.15868,-2.62851 -0.30771,-5.41331 -0.45535,-8.19811 z"
   id="path93" />&#10;	<path
   style="opacity:0.1;fill:#ffffff"
   d="M 278.116,305.423 H 1.199 V 306 h 277.247 c -0.115,-0.185 -0.223,-0.381 -0.33,-0.577 z"
   id="path94" />&#10;	<path
   style="fill:#be7f61"
   d="m 484.212,307.423 c -0.108,0.196 -0.215,0.392 -0.33,0.577 h 13.393 c -0.115,-0.185 -0.222,-0.381 -0.33,-0.577 z"
   id="path95" />&#10;	<path
   style="opacity:0.1;fill:#ffffff"
   d="m 484.212,307.423 c -0.108,0.196 -0.215,0.392 -0.33,0.577 h 13.393 c -0.115,-0.185 -0.222,-0.381 -0.33,-0.577 z"
   id="path96" />&#10;	&#10;	&#10;	&#10;	&#10;	&#10;	&#10;	&#10;	&#10;	&#10;	&#10;	&#10;	&#10;	&#10;	<path
   style="fill:#f9d0d9"
   d="m 486.21,298.901 c 0,-0.111 -0.008,-0.219 -0.01,-0.33 -0.004,0.643 -0.033,1.261 -0.1,1.874 -0.562,-6.091 -3.756,-10.76 -7.618,-10.76 h -15.571 c 0,0.371 0,0.746 0,1.116 -1.123,0 -2.249,0 -3.383,0 0,-0.37 0,-0.746 0,-1.116 H 393.84 c -3.862,0 -7.056,4.669 -7.618,10.76 -0.065,-0.597 -0.091,-1.199 -0.097,-1.823 -10e-4,0.094 -0.009,0.184 -0.009,0.278 0,3.282 0.76,6.264 1.998,8.521 h 96.096 c 1.24,-2.256 2,-5.237 2,-8.52 z"
   id="path115" />&#10;	<path
   style="fill:#f9d0d9"
   d="m 459.529,290.802 c 1.134,0 2.26,0 3.383,0 0,-0.37 0,-0.746 0,-1.116 h -3.383 c 0,0.371 0,0.746 0,1.116 z"
   id="path116" />&#10;	<path
   style="fill:#f9d0d9"
   d="m 393.839,311.628 h 84.65 c 2.1,0 4.001,-1.386 5.393,-3.628 h -95.437 c 1.393,2.241 3.294,3.628 5.394,3.628 z"
   id="path117" />&#10;	<path
   style="fill:#f9d0d9"
   d="m 388.116,307.423 c 0.107,0.196 0.215,0.392 0.33,0.577 h 95.437 c 0.115,-0.185 0.222,-0.381 0.33,-0.577 z"
   id="path118" />&#10;	<path
   style="fill:#5c886c"
   d="m 393.839,286.175 h 84.65 c 4.197,0 7.604,5.522 7.711,12.396 0,-0.038 0.006,-0.072 0.006,-0.109 0,-7.021 -3.458,-12.726 -7.723,-12.726 h -13.754 c -0.045,0.004 -0.087,0.011 -0.132,0.014 -0.002,-0.005 -0.002,-0.009 -0.004,-0.014 h -70.751 c -4.266,0 -7.723,5.705 -7.723,12.726 0,0.055 0.008,0.106 0.009,0.161 0.089,-6.899 3.504,-12.448 7.711,-12.448 z"
   id="path119" />&#10;	<path
   style="opacity:0.5;fill:#ffffff"
   d="m 393.839,286.175 h 84.65 c 4.197,0 7.604,5.522 7.711,12.396 0,-0.038 0.006,-0.072 0.006,-0.109 0,-7.021 -3.458,-12.726 -7.723,-12.726 h -13.754 c -0.045,0.004 -0.087,0.011 -0.132,0.014 -0.002,-0.005 -0.002,-0.009 -0.004,-0.014 h -70.751 c -4.266,0 -7.723,5.705 -7.723,12.726 0,0.055 0.008,0.106 0.009,0.161 0.089,-6.899 3.504,-12.448 7.711,-12.448 z"
   id="path120" />&#10;	<path
   style="fill:#5c7b71"
   d="m 464.728,285.737 h -0.136 c 0.002,0.005 0.002,0.009 0.004,0.014 0.045,-0.004 0.087,-0.01 0.132,-0.014 z"
   id="path121" />&#10;	<path
   style="opacity:0.5;fill:#ffffff"
   d="m 464.728,285.737 h -0.136 c 0.002,0.005 0.002,0.009 0.004,0.014 0.045,-0.004 0.087,-0.01 0.132,-0.014 z"
   id="path122" />&#10;	<path
   style="fill:#f9d0d9"
   d="m 393.841,289.686 h 65.688 c 0,-0.752 0,-1.501 0,-2.266 1.134,0 2.26,0 3.383,0 0,0.765 0,1.514 0,2.266 h 15.571 c 3.862,0 7.056,4.669 7.618,10.76 0.066,-0.614 0.096,-1.231 0.1,-1.874 -0.107,-6.875 -3.514,-12.396 -7.711,-12.396 h -84.65 c -4.207,0 -7.622,5.549 -7.713,12.448 0.005,0.624 0.032,1.226 0.097,1.823 0.561,-6.092 3.755,-10.761 7.617,-10.761 z"
   id="path123" />&#10;	<path
   style="opacity:0.5;fill:#ffffff"
   d="m 393.841,289.686 h 65.688 c 0,-0.752 0,-1.501 0,-2.266 1.134,0 2.26,0 3.383,0 0,0.765 0,1.514 0,2.266 h 15.571 c 3.862,0 7.056,4.669 7.618,10.76 0.066,-0.614 0.096,-1.231 0.1,-1.874 -0.107,-6.875 -3.514,-12.396 -7.711,-12.396 h -84.65 c -4.207,0 -7.622,5.549 -7.713,12.448 0.005,0.624 0.032,1.226 0.097,1.823 0.561,-6.092 3.755,-10.761 7.617,-10.761 z"
   id="path124" />&#10;	<path
   style="fill:#f9d0d9"
   d="m 459.529,287.42 c 0,0.765 0,1.514 0,2.266 h 3.383 c 0,-0.752 0,-1.501 0,-2.266 -1.123,0 -2.249,0 -3.383,0 z"
   id="path125" />&#10;	<path
   style="opacity:0.5;fill:#ffffff"
   d="m 459.529,287.42 c 0,0.765 0,1.514 0,2.266 h 3.383 c 0,-0.752 0,-1.501 0,-2.266 -1.123,0 -2.249,0 -3.383,0 z"
   id="path126" />&#10;	&#10;	&#10;	&#10;	&#10;	&#10;	&#10;	&#10;	&#10;	&#10;	&#10;</g>&#10;</svg>
